HIERARCHY
ROOT Hips
{
	OFFSET -0.001795 -0.223333 0.028219
	CHANNELS 6 Xposition Yposition Zposition Zrotation Yrotation Xrotation 
	JOINT LeftUpLeg
	{
		OFFSET 0.069520 -0.091406 -0.006815
		CHANNELS 3 Zrotation Yrotation Xrotation
		JOINT LeftLeg
		{
			OFFSET 0.034277 -0.375199 -0.004496
			CHANNELS 3 Zrotation Yrotation Xrotation
			JOINT LeftFoot
			{
				OFFSET -0.013596 -0.397961 -0.043693
				CHANNELS 3 Zrotation Yrotation Xrotation
				JOINT LeftToe
				{
					OFFSET 0.026358 -0.055791 0.119288
					CHANNELS 3 Zrotation Yrotation Xrotation
					End Site
					{
						OFFSET 0.000000 0.000000 0.000000
					}
				}
			}
		}
	}
	JOINT RightUpLeg
	{
		OFFSET -0.067670 -0.090522 -0.004320
		CHANNELS 3 Zrotation Yrotation Xrotation
		JOINT RightLeg
		{
			OFFSET -0.038290 -0.382569 -0.008850
			CHANNELS 3 Zrotation Yrotation Xrotation
			JOINT RightFoot
			{
				OFFSET 0.015774 -0.398415 -0.042312
				CHANNELS 3 Zrotation Yrotation Xrotation
				JOINT RightToe
				{
					OFFSET -0.025372 -0.048144 0.123348
					CHANNELS 3 Zrotation Yrotation Xrotation
					End Site
					{
						OFFSET 0.000000 0.000000 0.000000
					}
				}
			}
		}
	}
	JOINT Spine
	{
		OFFSET -0.002533 0.108963 -0.026696
		CHANNELS 3 Zrotation Yrotation Xrotation
		JOINT Spine1
		{
			OFFSET 0.005487 0.135180 0.001092
			CHANNELS 3 Zrotation Yrotation Xrotation
			JOINT Spine2
			{
				OFFSET 0.001457 0.052922 0.025425
				CHANNELS 3 Zrotation Yrotation Xrotation
				JOINT Neck
				{
					OFFSET -0.002778 0.213870 -0.042857
					CHANNELS 3 Zrotation Yrotation Xrotation
					JOINT Head
					{
						OFFSET 0.005152 0.064970 0.051349
						CHANNELS 3 Zrotation Yrotation Xrotation
						End Site
						{
							OFFSET 0.000000 0.000000 0.000000
						}
					}
				}
				JOINT LeftShoulder
				{
					OFFSET 0.078845 0.121749 -0.034090
					CHANNELS 3 Zrotation Yrotation Xrotation
					JOINT LeftArm
					{
						OFFSET 0.090977 0.030469 -0.008868
						CHANNELS 3 Zrotation Yrotation Xrotation
						JOINT LeftForeArm
						{
							OFFSET 0.259612 -0.012772 -0.027456
							CHANNELS 3 Zrotation Yrotation Xrotation
							JOINT LeftHand
							{
								OFFSET 0.249234 0.008986 -0.001171
								CHANNELS 3 Zrotation Yrotation Xrotation
								End Site
								{
									OFFSET 0.000000 0.000000 0.000000
								}
							}
						}
					}
				}
				JOINT RightShoulder
				{
					OFFSET -0.081759 0.118833 -0.038615
					CHANNELS 3 Zrotation Yrotation Xrotation
					JOINT RightArm
					{
						OFFSET -0.096012 0.032551 -0.009143
						CHANNELS 3 Zrotation Yrotation Xrotation
						JOINT RightForeArm
						{
							OFFSET -0.253742 -0.013329 -0.021401
							CHANNELS 3 Zrotation Yrotation Xrotation
							JOINT RightHand
							{
								OFFSET -0.255298 0.007772 -0.005559
								CHANNELS 3 Zrotation Yrotation Xrotation
								End Site
								{
									OFFSET 0.000000 0.000000 0.000000
								}
							}
						}
					}
				}
			}
		}
	}
}
MOTION
Frames: 7
Frame Time: 0.050000
0.000000 0.946188 0.000000 0.685588 23.464080 -2.655017 7.141859 -0.458052 2.531079 -1.834967 -0.018926 3.922418 0.279702 5.321253 7.605492 0.000000 0.000000 0.000000 -5.380392 -0.019771 -4.996505 -1.708762 0.396191 8.723591 -1.735169 -4.919915 7.806706 0.000000 0.000000 0.000000 4.835408 -0.783559 7.984095 -7.169974 2.666964 -23.364726 0.282321 2.609822 30.022159 13.088869 -3.233738 -26.910430 0.000000 0.000000 0.000000 -8.562504 -2.382196 -1.629221 -53.311166 6.225795 -11.992862 -29.265528 -33.669171 8.529420 0.000000 0.000000 0.000000 13.888776 -6.168300 -0.786804 65.294446 2.722307 -6.071692 18.861328 37.173313 10.527879 0.000000 0.000000 0.000000 
0.003764 0.944858 -0.005555 1.379014 19.780275 -1.554913 6.714647 -0.346873 4.263650 -3.659654 0.222186 1.024794 2.605115 8.917707 7.811868 0.000000 0.000000 0.000000 -7.241785 -0.044253 -9.534068 -0.635966 0.158174 13.341310 -0.580676 -2.824327 7.867531 0.000000 0.000000 0.000000 5.004717 -0.921673 9.114883 -7.388456 2.602416 -24.317120 -1.126812 1.627382 30.320596 14.134123 -4.805454 -25.638448 0.000000 0.000000 0.000000 -7.757706 -3.378269 -0.535144 -56.058808 5.575591 -12.555372 -31.499276 -38.869022 11.487847 0.000000 0.000000 0.000000 14.441508 -4.372406 -0.304040 63.248917 0.543111 -7.753496 23.845252 39.245894 12.817109 0.000000 0.000000 0.000000 
0.005828 0.943007 -0.010361 1.278975 13.989334 -1.397673 6.121200 -0.151603 5.430634 -4.412355 0.337458 0.900209 3.841955 10.367065 7.005478 0.000000 0.000000 0.000000 -7.556740 0.113586 -11.552608 0.440224 0.059149 13.346112 -0.818885 -3.680995 6.900872 0.000000 0.000000 0.000000 5.729677 -1.021907 9.716853 -7.633553 2.627285 -24.067324 -0.908889 1.502132 30.945811 11.304946 -3.182476 -28.290731 0.000000 0.000000 0.000000 -8.111022 -4.689505 0.491153 -54.592962 3.467702 -11.219204 -42.189526 -44.526406 18.972785 0.000000 0.000000 0.000000 15.148002 -4.274292 -0.857534 62.105148 -1.474657 -9.261927 24.298079 42.063122 13.664663 0.000000 0.000000 0.000000 
0.005418 0.940047 -0.012334 1.774645 9.928282 -1.016010 4.937390 0.066263 6.438482 -4.084004 0.355008 0.369483 6.427561 14.486146 7.090465 0.000000 0.000000 0.000000 -8.421669 0.162974 -15.438471 2.108433 -0.284071 17.114198 -2.124068 -6.662193 5.981671 0.000000 0.000000 0.000000 5.938206 -1.195904 11.349759 -7.780716 2.565513 -24.838625 -1.856033 -0.530217 31.784278 12.393092 -4.588051 -28.794785 0.000000 0.000000 0.000000 -7.857103 -5.171791 1.326063 -54.188687 1.008179 -10.032757 -55.354534 -49.724554 30.189324 0.000000 0.000000 0.000000 14.794464 -4.173603 -1.654713 61.278836 -3.977380 -10.792599 32.871019 42.804921 17.031993 0.000000 0.000000 0.000000 
0.001295 0.937925 -0.009627 1.346861 4.508671 -1.508049 4.479553 0.296191 8.318692 -4.084315 0.408727 -0.031564 8.680356 18.278460 8.813313 0.000000 0.000000 0.000000 -8.066176 0.479350 -18.126342 3.685667 -0.500823 19.961080 -4.397472 -12.164508 7.669940 0.000000 0.000000 0.000000 6.181361 -1.391953 13.645540 -5.964724 2.084254 -25.384689 -3.255647 -0.446430 31.674798 12.794190 -5.266017 -29.225755 0.000000 0.000000 0.000000 -6.678280 -6.624134 2.320412 -51.918403 -3.053264 -7.796899 -77.707297 -54.447124 50.228845 0.000000 0.000000 0.000000 14.288853 -6.059810 -3.236608 59.792854 -7.017025 -12.179324 43.621095 43.028710 21.395727 0.000000 0.000000 0.000000 
-0.007194 0.936731 -0.000760 0.960517 -0.886349 -1.614322 3.912106 0.588801 10.343064 -2.652217 0.303986 -0.562067 12.198572 23.669619 12.032083 0.000000 0.000000 0.000000 -7.437655 0.900567 -20.332132 5.020296 -0.570193 22.083739 -7.393188 -18.662925 10.306962 0.000000 0.000000 0.000000 6.464250 -1.442952 14.849868 -4.345203 1.625294 -26.656103 -4.206425 -1.392377 32.523652 12.332709 -5.622551 -29.813710 0.000000 0.000000 0.000000 -5.722490 -7.141472 2.897254 -52.378623 -4.871103 -6.957649 -96.140869 -54.903775 69.136486 0.000000 0.000000 0.000000 13.550537 -6.887129 -4.319021 58.788409 -9.429686 -13.420731 49.456647 41.990429 22.407031 0.000000 0.000000 0.000000 
-0.021078 0.935898 0.014927 0.767821 -6.378769 -1.581675 3.824241 0.879475 12.082822 -2.423925 0.304230 -0.379753 14.482543 26.577261 15.904871 0.000000 0.000000 0.000000 -6.468219 1.375407 -21.392771 6.655135 -0.645446 23.870357 -10.405282 -24.349619 13.559866 0.000000 0.000000 0.000000 6.633821 -1.356990 14.996895 -3.070095 1.266400 -26.190855 -5.311259 -2.287194 32.561717 11.511382 -5.973541 -28.989087 0.000000 0.000000 0.000000 -3.769307 -6.626510 2.799105 -53.652205 -5.800621 -6.201810 -108.752103 -55.514335 85.754091 0.000000 0.000000 0.000000 12.274402 -7.608854 -5.168585 58.784572 -13.187545 -15.463886 55.273437 41.155165 23.261314 0.000000 0.000000 0.000000 
